<?xml version="1.0" encoding="UTF-8" standalone="no"?>
<svg
   xmlns:dc="http://purl.org/dc/elements/1.1/"
   xmlns:cc="http://creativecommons.org/ns#"
   xmlns:rdf="http://www.w3.org/1999/02/22-rdf-syntax-ns#"
   xmlns:svg="http://www.w3.org/2000/svg"
   xmlns="http://www.w3.org/2000/svg"
   xmlns:sodipodi="http://sodipodi.sourceforge.net/DTD/sodipodi-0.dtd"
   xmlns:inkscape="http://www.inkscape.org/namespaces/inkscape"
   viewBox="0 0 16 16"
   version="1.1"
   id="svg4"
   sodipodi:docname="startup.svg"
   inkscape:version="0.92.2 5c3e80d, 2017-08-06"
   inkscape:export-filename="/home/alex/Devel/Gnome/OSXish-GNOME-Shell/AssetTweaks/assets/startup.png"
   inkscape:export-xdpi="768"
   inkscape:export-ydpi="768">
  <metadata
     id="metadata10">
    <rdf:RDF>
      <cc:Work
         rdf:about="">
        <dc:format>image/svg+xml</dc:format>
        <dc:type
           rdf:resource="http://purl.org/dc/dcmitype/StillImage" />
        <dc:title />
      </cc:Work>
    </rdf:RDF>
  </metadata>
  <defs
     id="defs8" />
  <sodipodi:namedview
     pagecolor="#ffffff"
     bordercolor="#666666"
     borderopacity="1"
     objecttolerance="10"
     gridtolerance="10"
     guidetolerance="10"
     inkscape:pageopacity="0"
     inkscape:pageshadow="2"
     inkscape:window-width="1920"
     inkscape:window-height="1023"
     id="namedview6"
     showgrid="true"
     inkscape:zoom="43.779216"
     inkscape:cx="3.5917517"
     inkscape:cy="7.7387131"
     inkscape:window-x="0"
     inkscape:window-y="28"
     inkscape:window-maximized="1"
     inkscape:current-layer="svg4"
     showguides="false">
    <inkscape:grid
       type="xygrid"
       id="grid814" />
  </sodipodi:namedview>
  <path
     inkscape:connector-curvature="0"
     style="fill:#373737;fill-opacity:1;stroke-width:0.49705487"
     d="m 4.5,10.600308 c -0.4818947,0 -0.8698461,0.387951 -0.8698461,0.869846 0,0.481895 0.3879514,0.869846 0.8698462,0.869846 0.4818947,0 0.869846,-0.387951 0.869846,-0.869846 0,-0.481895 -0.3879515,-0.869846 -0.8698461,-0.869846 z m 3.5,0 c -0.4818947,0 -0.869846,0.387951 -0.869846,0.869846 C 7.130154,11.952049 7.5181053,12.34 8,12.34 c 0.4818947,0 0.8698461,-0.387951 0.8698461,-0.869846 0,-0.481895 -0.3879515,-0.869846 -0.8698461,-0.869846 z m 3.5,0 c -0.481896,0 -0.869846,0.387951 -0.869846,0.869846 0,0.481895 0.38795,0.869846 0.869846,0.869846 0.481895,0 0.869846,-0.387951 0.869846,-0.869846 0,-0.481895 -0.387951,-0.869846 -0.869846,-0.869846 z"
     id="path2-7"
     sodipodi:nodetypes="sssssssssssssss" />
  <path
     inkscape:connector-curvature="0"
     style="fill:#373737;fill-opacity:1;stroke-width:0.49705487"
     d="m 4.5,7.1003074 c -0.4818947,0 -0.8698461,0.3879513 -0.8698461,0.869846 0,0.4818947 0.3879514,0.8698461 0.8698462,0.8698461 0.4818947,0 0.869846,-0.3879514 0.869846,-0.8698461 0,-0.4818947 -0.3879515,-0.869846 -0.8698461,-0.869846 z m 3.5,0 c -0.4818947,0 -0.869846,0.3879513 -0.869846,0.869846 0,0.4818947 0.3879513,0.8698461 0.869846,0.8698461 0.4818947,0 0.8698461,-0.3879514 0.8698461,-0.8698461 C 8.8698461,7.4882587 8.4818946,7.1003074 8,7.1003074 Z m 3.5,0 c -0.481896,0 -0.869846,0.3879513 -0.869846,0.869846 0,0.4818947 0.38795,0.8698461 0.869846,0.8698461 0.481895,0 0.869846,-0.3879514 0.869846,-0.8698461 0,-0.4818947 -0.387951,-0.869846 -0.869846,-0.869846 z"
     id="path2-7-7"
     sodipodi:nodetypes="sssssssssssssss" />
  <path
     inkscape:connector-curvature="0"
     style="fill:#373737;fill-opacity:1;stroke-width:0.49705487"
     d="m 4.5,3.600307 c -0.4818947,0 -0.8698461,0.3879513 -0.8698461,0.8698455 0,0.481895 0.3879514,0.869847 0.8698462,0.869847 0.4818947,0 0.869846,-0.387952 0.869846,-0.869847 C 5.3698461,3.9882583 4.9818946,3.600307 4.5,3.600307 Z m 3.5,0 c -0.4818947,0 -0.869846,0.3879513 -0.869846,0.8698455 0,0.481895 0.3879513,0.869847 0.869846,0.869847 0.4818947,0 0.8698461,-0.387952 0.8698461,-0.869847 C 8.8698461,3.9882583 8.4818946,3.600307 8,3.600307 Z m 3.5,0 c -0.481896,0 -0.869846,0.3879513 -0.869846,0.8698455 0,0.481895 0.38795,0.869847 0.869846,0.869847 0.481895,0 0.869846,-0.387952 0.869846,-0.869847 0,-0.4818942 -0.387951,-0.8698455 -0.869846,-0.8698455 z"
     id="path2-7-5"
     sodipodi:nodetypes="sssssssssssssss" />
</svg>
